<svg width="25" height="25" viewBox="0 0 29 24" fill="none" xmlns="http://www.w3.org/2000/svg">
<g clip-path="url(#clip0_63_2)">
<path d="M1.20878 3H21.7359L22.1752 0.909C22.2862 0.381 22.7832 0 23.3611 0H28.3958C28.7295 0 29 0.251859 29 0.5625V1.6875C29 1.99814 28.7295 2.25 28.3958 2.25H24.356L20.8521 18.9235C21.4078 19.4625 21.75 20.1938 21.75 21C21.75 22.6568 20.3074 24 18.5278 24C16.7482 24 15.3056 22.6568 15.3056 21C15.3049 20.4733 15.454 19.9557 15.7377 19.5H8.42893C8.7126 19.9557 8.86169 20.4733 8.86106 21C8.86106 22.6568 7.41841 24 5.63884 24C3.85926 24 2.41662 22.6568 2.41662 21C2.41662 20.1499 2.79704 19.383 3.40725 18.8371L3.35514 18.6141C3.19131 17.9129 3.76507 17.25 4.53588 17.25H18.7413L19.214 15H3.48529C2.91687 15 2.42528 14.6311 2.30454 14.114L0.0280437 4.36397C-0.135687 3.66277 0.438068 3 1.20878 3ZM18.5278 22.125C19.1941 22.125 19.7361 21.6203 19.7361 21C19.7361 20.3797 19.1941 19.875 18.5278 19.875C17.8615 19.875 17.3194 20.3797 17.3194 21C17.3194 21.6203 17.8615 22.125 18.5278 22.125ZM5.63889 22.125C6.30518 22.125 6.84722 21.6203 6.84722 21C6.84722 20.3797 6.30518 19.875 5.63889 19.875C4.97259 19.875 4.43056 20.3797 4.43056 21C4.43056 21.6203 4.97259 22.125 5.63889 22.125ZM4.45885 12.75H19.6868L21.2631 5.25H2.70777L4.45885 12.75Z" fill="black"/>
</g>
</svg>
